<svg xmlns="http://www.w3.org/2000/svg" viewBox="0 0 255.42 256"><defs><style>.cls-1{fill:#fff;}</style></defs><title>phone</title><g id="Слой_2" data-name="Слой 2"><g id="Слой_1-2" data-name="Слой 1"><path class="cls-1" d="M202,5.74,162.49,45.27c-7.85,7.88-7.61,20.92.54,29.07L183,94.26c-.7,1.25-1.42,2.56-2.19,3.93-7,12.57-16.52,29.79-34.65,47.91s-35.41,27.73-48,34.72c-1.34.73-2.62,1.44-3.84,2.14L80.93,169.59,74.35,163c-8.17-8.16-21.2-8.39-29.07-.53L5.74,202c-7.86,7.86-7.62,20.91.54,29.07l11.21,11.14.3-.3A64.89,64.89,0,0,0,34,251.11a67.2,67.2,0,0,0,16.42,4.08c43.28,5.22,82.84-14.55,136.51-68.23C261.1,112.77,255.5,53,255.23,50.41a67.53,67.53,0,0,0-4.14-16.48,64.32,64.32,0,0,0-9.15-16.13l.22-.25-11-11.28C223-1.88,209.9-2.11,202,5.74Z"/></g></g></svg>